<?xml version="1.0" encoding="utf-8"?>
<!-- Generator: Adobe Illustrator 23.0.1, SVG Export Plug-In . SVG Version: 6.00 Build 0)  -->
<svg version="1.1" id="Layer_1" xmlns="http://www.w3.org/2000/svg" xmlns:xlink="http://www.w3.org/1999/xlink" x="0px" y="0px"
	 viewBox="0 0 200 54.9" style="enable-background:new 0 0 200 54.9;" xml:space="preserve">
<style type="text/css">
	.st0{fill:#FDCC2F;}
	.st1{fill:#FEFEFE;}
</style>
<g>
	<g>
		<path class="st0" d="M68.8,2.7c17.1-1.9,31.1,17,25,32.9C89.8,48,75,55.5,62.7,51.1c-10.5-3.2-18-14.2-16.9-25.2
			C46.2,13.8,56.6,3.1,68.8,2.7z M66.4,14.3C56,17,53.3,32.2,62,38.3c7.3,6.3,19.9,1.6,21.6-7.8C86.3,20.9,75.9,10.7,66.4,14.3z"/>
	</g>
	<g>
		<path class="st0" d="M2.4,3.6C9.2,3.4,16.2,3.2,23,3.7c11.6,0.9,21.4,11.8,21.1,23.4c0.6,11.5-8.5,22.2-19.8,24
			c-7.3,1-14.6,0.5-21.9,0.3C2.1,35.5,2.2,19.5,2.4,3.6z M13,13.5C13,22.8,13,32.1,13,41.4c4.8,0,10.3,0.8,14.3-2.4
			c7.4-5.4,7.4-18.2-0.4-23.2C22.9,12.8,17.7,13.5,13,13.5z"/>
	</g>
</g>
<g>
	<path class="st1" d="M103.5,2.7c0.6,0,1.9,0.1,2.6,0.1c5.9,9.9,10.9,20.3,16.5,30.4c5.5-10.1,10.8-20.3,16.3-30.3
		c0.7,0,2.1-0.1,2.8-0.2c2.9,16.2,5.9,32.4,8.1,48.7c-3.4,0.2-6.9,0.2-10.3,0.1c-1.6-7.4-2.3-15-3.3-22.5c-4.5,7.7-7.8,16-12.6,23.4
		c-0.5-0.1-1.5-0.2-2-0.3c-4.6-7.4-8.1-15.4-12.3-23.1c-1.4,7.4-2.1,15-3.5,22.5c-3.5,0.1-7,0.1-10.4-0.2
		C97.9,35.1,100.3,18.8,103.5,2.7z"/>
	<g>
		<path class="st1" d="M167,3.6c8.9-2.5,19.2,0.4,25.2,7.6c7.7,8.5,8,22.6,0.9,31.5c-6.5,8.6-19,12-29,7.6
			c-10-3.9-16.5-15.1-15-25.7C150.1,14.9,157.4,6,167,3.6z M169.4,14.3c-9.8,2.7-12.7,16.9-4.9,23.4c7.1,7.2,20.8,2.8,22.5-7.1
			C189.6,20.8,179.1,10.6,169.4,14.3z"/>
	</g>
</g>
</svg>
